<svg id="Layer_1" data-name="Layer 1" xmlns="http://www.w3.org/2000/svg" viewBox="0 0 210.83 112.93">
	<defs>
		<style>
			.cls-1{fill:#00205b;}.cls-2{fill:#da291c;}
		</style>
	</defs>
	<title>
		AY_LOGO_RGB
	</title>
	<polygon class="cls-1"  fill="#00205b" points="53.93 52.42 37.8 14.33 43.72 14.33 56.33 45.26 68.94 14.33 74.86 14.33 58.72 52.42 53.93 52.42" />
	<path class="cls-1"  fill="#00205b" d="M37.66,52.42h5.92L27.45,14.33H22.66L6.52,52.42h5.92l4-9.74H33.69ZM18.36,37.91l6.69-16.42,6.7,16.42Z" />
	<rect class="cls-1"  fill="#00205b" x="79.72" y="14.33" width="5.21" height="38.09" />
	<path class="cls-1"  fill="#00205b" d="M107.48,30.87c-8.21-1.75-9.72-3.64-9.72-6.72v-.1c0-3.24,3.06-5.49,7.43-5.49a15.88,15.88,0,0,1,10.44,3.91l.41.33,3.06-4-.38-.31A20,20,0,0,0,105.3,13.8c-7.39,0-12.75,4.46-12.75,10.62v.1c0,7,5.16,9.52,12.91,11.2s9.3,3.5,9.3,6.56v.1c0,3.42-3.21,5.81-7.81,5.81-4.8,0-8.4-1.48-12.44-5.12l-.39-.35-3.26,3.84.37.33A22.3,22.3,0,0,0,106.79,53C114.58,53,120,48.43,120,42v-.11C120,36.06,116.27,32.78,107.48,30.87Z" />
	<path class="cls-1"  fill="#00205b" d="M143.34,13.69a19.42,19.42,0,0,0-19.57,19.68v.11a19.1,19.1,0,0,0,19.46,19.58A19.42,19.42,0,0,0,162.8,33.37v-.1A19.1,19.1,0,0,0,143.34,13.69Zm0,34.5c-8.09,0-14.2-6.37-14.2-14.82v-.1c0-8.39,6.06-14.71,14.09-14.71s14.2,6.37,14.2,14.81v.11C157.43,41.86,151.37,48.19,143.34,48.19Z" />
	<polygon class="cls-1"  fill="#00205b" points="173.3 22.95 196.48 52.23 196.63 52.42 200.73 52.42 200.73 14.33 195.63 14.33 195.63 43.11 172.89 14.33 168.2 14.33 168.2 52.42 173.3 52.42 173.3 22.95" />
	<rect class="cls-2"  fill="#da291c" width="210.83" height="6.24" />
	<rect class="cls-2"  fill="#da291c" y="106.7" width="210.83" height="6.24" />
	<path class="cls-1"  fill="#00205b" d="M61.27,60A19.41,19.41,0,0,0,41.7,79.63v.1c0,11.17,8.37,19.58,19.46,19.58A19.42,19.42,0,0,0,80.73,79.63v-.11A19.09,19.09,0,0,0,61.27,60Zm0,34.49c-8.1,0-14.2-6.36-14.2-14.81v-.11c0-8.38,6.06-14.71,14.09-14.71s14.2,6.37,14.2,14.82v.1C75.36,88.12,69.3,94.44,61.27,94.44Z" />
	<path class="cls-1"  fill="#00205b" d="M113.35,82.58c0,7.57-3.82,11.74-10.74,11.74s-10.89-4.38-10.89-12V60.51H86.5V82.58c0,10.24,6.13,16.61,16,16.61,10.06,0,16.06-6.33,16.06-16.93V60.51h-5.21Z" />
	<polygon class="cls-1"  fill="#00205b" points="154.45 89.29 131.71 60.51 127.02 60.51 127.02 98.61 132.13 98.61 132.13 69.13 155.3 98.42 155.45 98.61 159.55 98.61 159.55 60.51 154.45 60.51 154.45 89.29" />
	<path class="cls-1"  fill="#00205b" d="M185.08,77.86v4.76h11.35V91.1a17.19,17.19,0,0,1-10.26,3.45c-8.52,0-14.25-6-14.25-14.92v-.11c0-8.25,6-14.71,13.67-14.71a15.35,15.35,0,0,1,11,4.12l.38.33,3.38-4L200,65a20.2,20.2,0,0,0-14.22-5c-10.77,0-19.2,8.64-19.2,19.68v.1c0,11.53,8,19.58,19.46,19.58a23.09,23.09,0,0,0,15.3-5.79l.17-.15V77.86Z" />
	<polygon class="cls-1"  fill="#00205b" points="12.54 60.51 25.05 78.78 37.56 60.51 43.58 60.51 27.66 83.58 27.66 98.61 22.42 98.61 22.42 83.53 6.52 60.51 12.54 60.51" />
</svg>
